<svg
  id="increase" class= "increase"
  data-name="increase"
  xmlns="http://www.w3.org/2000/svg"
  viewBox="0 0 893.33 660.3"
>
  <defs>
<mask id="mask">
<rect id="square" x="-893.33" y="0" width="893.33" height="660.3" fill="#fff" />
</mask>
</defs> 

  
  <g id="toBeRevealed2" mask="url(#mask)"> 
      <path
    d="M18.36,656.3a5,5,0,0,1-4.87-3.89L4.13,611.47a5,5,0,0,1,.64-3.77,5,5,0,0,1,3.13-2.22l3.87-.88c103.09-23.56,200.46-45.81,274.08-119,55.28-55,105.18-117.85,153.44-178.64l.08-.1c19.18-24.15,39-49.13,58.95-73.34q5.93-7.18,11.88-14.45l.1-.13c34.47-42,70.11-85.47,111.3-122.64C669,53.45,734.15,48,785.59,48c7.86,0,16.22.14,26,.43L811.86,10a6,6,0,0,1,3.72-5.52,6,6,0,0,1,6.52,1.31l65.48,65.48a6,6,0,0,1,0,8.48l-65.94,65.95a6,6,0,0,1-4.25,1.76,5.82,5.82,0,0,1-2.29-.46,6,6,0,0,1-3.71-5.54v-41c-10.12-.31-18.56-.46-26.32-.46-41.88,0-94.34,4-128.63,34.92-38.29,34.55-72.67,76.46-105.92,117l-.45.55q-5.84,7.11-11.62,14.14c-19.62,23.82-39.27,48.57-58.28,72.51l-.13.16c-49.22,62-100.09,126.07-157.52,183.2C238.34,606.16,129.05,631.14,23.35,655.29l-3.87.88A4.64,4.64,0,0,1,18.36,656.3Z"
    style="fill: #dea84f;"
  />
	  <path
    d="M817.86,8a2,2,0,0,1,1.41.59l65.48,65.48a2,2,0,0,1,0,2.83l-65.94,65.94a2,2,0,0,1-1.42.59,2.06,2.06,0,0,1-.76-.15,2,2,0,0,1-1.24-1.85V96.53c-10-.34-20.17-.59-30.32-.59-49.08,0-98,5.84-131.31,35.95-38.52,34.76-73,76.78-106.34,117.43q-6,7.38-12,14.68c-19.66,23.85-39.32,48.62-58.35,72.58l-.11.15C427.77,398.62,377,462.6,319.7,519.58,236.33,602.52,127.61,627.36,22.46,651.39l-3.87.89-.23,0a1,1,0,0,1-1-.78L8,610.58a1,1,0,0,1,.75-1.2l3.88-.88c103.67-23.69,201.58-46.07,276-120.12,55.45-55.16,105.43-118.12,153.77-179,19.2-24.19,39-49.16,59-73.36q5.93-7.2,11.88-14.47l.1-.12c34.38-41.91,69.92-85.24,110.89-122.21C668.65,59.18,729.09,52,785.6,52c10.17,0,20.22.23,30,.55L815.86,10a2,2,0,0,1,2-2m0-8a10,10,0,0,0-10,9.94l-.2,34.33c-8.13-.21-15.28-.31-22.06-.31-52.16,0-118.24,5.61-166.68,49.32-41.41,37.37-77.15,80.94-111.71,123.07l-.11.14-11.87,14.44c-20,24.22-39.79,49.21-59,73.37l-.09.1C388,365.12,338.14,427.88,283,482.71c-72.81,72.43-169.64,94.56-272.16,118L7,601.58a9,9,0,0,0-5.62,4,8.93,8.93,0,0,0-1.15,6.8l9.36,40.93a9,9,0,0,0,8.77,7,8.84,8.84,0,0,0,2.05-.24l3.83-.87c106.25-24.28,216.11-49.39,301.1-133.94,57.6-57.3,108.54-121.47,157.81-183.52l.15-.18c19-23.93,38.64-48.67,58.24-72.47q5.84-7.08,11.71-14.24l.36-.45c33.16-40.42,67.44-82.21,105.51-116.56,33.28-30,84.79-33.89,126-33.89,6.7,0,13.93.11,22.32.35v37.14a10,10,0,0,0,6.17,9.24,10.14,10.14,0,0,0,3.83.76,9.91,9.91,0,0,0,7.07-2.93l65.95-65.95a10,10,0,0,0,0-14.14L824.93,2.93A9.93,9.93,0,0,0,817.86,0Z"
    style="fill: #fff;"
  />
</g>

</svg>